<?xml version="1.0" standalone="no"?><!DOCTYPE svg PUBLIC "-//W3C//DTD SVG 1.1//EN" "http://www.w3.org/Graphics/SVG/1.1/DTD/svg11.dtd"><svg t="1648973365037" class="icon" viewBox="0 0 1024 1024" version="1.1" xmlns="http://www.w3.org/2000/svg" p-id="4270" data-darkreader-inline-fill="" xmlns:xlink="http://www.w3.org/1999/xlink" width="200" height="200"><defs><style type="text/css"></style></defs><path d="M409.774926 348.998792l187.725511-272.201992C633.082955 25.598933 678.819716 0 735.180034 0c45.736761 0 85.415108 16.255323 118.992375 48.808633 33.406608 32.63864 50.173909 71.463689 50.17391 116.816466 0 33.449273-8.831632 63.101371-26.622891 88.700304l-169.251614 246.133745 207.052706 262.517061c20.649806 26.110912 31.017374 56.744302 31.017374 91.729512 0 46.334069-16.255323 86.097746-48.851298 119.376359-32.510645 33.235949-71.933003 49.875255-118.224407 49.875255-50.728553 0-89.468272-16.511312-116.091163-49.491271l-253.557435-316.445482v174.456731c0 49.83259-8.618308 88.48698-25.897588 116.133828C352.47598 998.827716 306.995209 1023.957335 246.837715 1023.957335c-54.696388 0-97.105287-18.601892-127.098704-55.421691-28.158827-34.089246-42.23824-79.186034-42.23824-135.333027V186.23224c0-53.117787 14.335403-97.019958 42.835548-131.535852C150.116412 18.260572 191.501354 0 244.320487 0c50.301904 0 92.15616 18.260572 125.690763 54.696388 18.687221 20.265822 30.505396 40.659639 35.454522 61.43744 2.986542 12.799467 4.479813 36.606475 4.479814 71.677013V348.998792h-0.17066z" fill="" p-id="4271"></path></svg>