<?xml version="1.0" standalone="no"?><!DOCTYPE svg PUBLIC "-//W3C//DTD SVG 1.1//EN" "http://www.w3.org/Graphics/SVG/1.1/DTD/svg11.dtd"><svg t="1648979115688" class="icon" viewBox="0 0 1024 1024" version="1.1" xmlns="http://www.w3.org/2000/svg" p-id="2628" data-darkreader-inline-fill="" xmlns:xlink="http://www.w3.org/1999/xlink" width="200" height="200"><defs><style type="text/css"></style></defs><path d="M512 1024c282.773333 0 512-229.226667 512-512S794.773333 0 512 0 0 229.226667 0 512s229.226667 512 512 512z" fill="#707070" p-id="2629" data-darkreader-inline-fill="" style="--darkreader-inline-fill:#515762;" data-spm-anchor-id="a313x.7781069.0.i1" class=""></path><path d="M456.490667 430.485333l93.888-136.042666C568.128 268.821333 591.04 256 619.157333 256c22.912 0 42.730667 8.128 59.52 24.405333 16.746667 16.256 25.130667 35.733333 25.130667 58.389334 0 16.768-4.437333 31.552-13.312 44.373333l-84.672 123.093333 103.530667 131.242667c10.346667 13.077333 15.509333 28.352 15.509333 45.845333 0 23.168-8.106667 43.072-24.384 59.690667-16.277333 16.64-35.989333 24.96-59.157333 24.96-25.386667 0-44.736-8.256-58.048-24.768l-126.784-158.208v87.232c0 24.896-4.309333 44.245333-12.949334 58.048C427.776 755.434667 404.842667 768 374.784 768c-27.349333 0-48.554667-9.237333-63.573333-27.733333-14.058667-17.002667-21.077333-39.552-21.077334-67.626667V349.162667c0-26.624 7.146667-48.554667 21.44-65.813334C326.613333 265.130667 347.306667 256 373.674667 256c25.130667 0 46.08 9.130667 62.848 27.349333 9.365333 10.112 15.274667 20.330667 17.749333 30.698667 1.472 6.4 2.218667 18.346667 2.218667 35.84v80.597333z" fill="#e6e6e6" p-id="2630" data-darkreader-inline-fill="" style="--darkreader-inline-fill:#31343b;" data-spm-anchor-id="a313x.7781069.0.i2" class=""></path></svg>